<svg width="120" height="20" viewBox="0 0 120 20" fill="none" xmlns="http://www.w3.org/2000/svg">
<path d="M20.6785 9.904C21.3039 10.072 21.7799 10.3613 22.1065 10.772C22.4332 11.1733 22.5965 11.6773 22.5965 12.284C22.5965 13.1427 22.2792 13.81 21.6445 14.286C21.0099 14.762 20.0905 15 18.8865 15H14.2385V5.2H18.6205C19.7219 5.2 20.5805 5.41933 21.1965 5.858C21.8125 6.29667 22.1205 6.91733 22.1205 7.72C22.1205 8.23333 21.9945 8.67667 21.7425 9.05C21.4999 9.42333 21.1452 9.708 20.6785 9.904ZM16.0305 9.386H18.4665C19.0545 9.386 19.5025 9.26933 19.8105 9.036C20.1185 8.80267 20.2725 8.45733 20.2725 8C20.2725 7.54267 20.1185 7.19733 19.8105 6.964C19.5025 6.72133 19.0545 6.6 18.4665 6.6H16.0305V9.386ZM18.8305 13.6C20.1185 13.6 20.7625 13.1147 20.7625 12.144C20.7625 11.192 20.1185 10.716 18.8305 10.716H16.0305V13.6H18.8305ZM29.9279 15.14C28.9385 15.14 28.0425 14.9253 27.2399 14.496C26.4465 14.0573 25.8212 13.4553 25.3639 12.69C24.9159 11.9247 24.6919 11.0613 24.6919 10.1C24.6919 9.13867 24.9205 8.27533 25.3779 7.51C25.8352 6.74467 26.4605 6.14733 27.2539 5.718C28.0565 5.27933 28.9525 5.06 29.9419 5.06C30.7445 5.06 31.4772 5.2 32.1399 5.48C32.8025 5.76 33.3625 6.166 33.8199 6.698L32.6439 7.804C31.9345 7.03867 31.0619 6.656 30.0259 6.656C29.3539 6.656 28.7519 6.80533 28.2199 7.104C27.6879 7.39333 27.2725 7.79933 26.9739 8.322C26.6752 8.84467 26.5259 9.43733 26.5259 10.1C26.5259 10.7627 26.6752 11.3553 26.9739 11.878C27.2725 12.4007 27.6879 12.8113 28.2199 13.11C28.7519 13.3993 29.3539 13.544 30.0259 13.544C31.0619 13.544 31.9345 13.1567 32.6439 12.382L33.8199 13.502C33.3625 14.034 32.7979 14.44 32.1259 14.72C31.4632 15 30.7305 15.14 29.9279 15.14ZM43.6097 13.474V15H36.2597V5.2H43.4137V6.726H38.0797V9.274H42.8117V10.772H38.0797V13.474H43.6097ZM58.1197 6.74H54.8717V15H53.0657V6.74H49.8317V5.2H58.1197V6.74ZM64.8387 15.14C63.84 15.14 62.9393 14.9253 62.1367 14.496C61.334 14.0573 60.704 13.4553 60.2467 12.69C59.7893 11.9153 59.5607 11.052 59.5607 10.1C59.5607 9.148 59.7893 8.28933 60.2467 7.524C60.704 6.74933 61.334 6.14733 62.1367 5.718C62.9393 5.27933 63.84 5.06 64.8387 5.06C65.8373 5.06 66.738 5.27933 67.5407 5.718C68.3433 6.14733 68.9733 6.74467 69.4307 7.51C69.888 8.27533 70.1167 9.13867 70.1167 10.1C70.1167 11.0613 69.888 11.9247 69.4307 12.69C68.9733 13.4553 68.3433 14.0573 67.5407 14.496C66.738 14.9253 65.8373 15.14 64.8387 15.14ZM64.8387 13.544C65.492 13.544 66.08 13.3993 66.6027 13.11C67.1253 12.8113 67.536 12.4007 67.8347 11.878C68.1333 11.346 68.2827 10.7533 68.2827 10.1C68.2827 9.44667 68.1333 8.85867 67.8347 8.336C67.536 7.804 67.1253 7.39333 66.6027 7.104C66.08 6.80533 65.492 6.656 64.8387 6.656C64.1853 6.656 63.5973 6.80533 63.0747 7.104C62.552 7.39333 62.1413 7.804 61.8427 8.336C61.544 8.85867 61.3947 9.44667 61.3947 10.1C61.3947 10.7533 61.544 11.346 61.8427 11.878C62.1413 12.4007 62.552 12.8113 63.0747 13.11C63.5973 13.3993 64.1853 13.544 64.8387 13.544ZM79.3328 9.904C79.9582 10.072 80.4342 10.3613 80.7608 10.772C81.0875 11.1733 81.2508 11.6773 81.2508 12.284C81.2508 13.1427 80.9335 13.81 80.2988 14.286C79.6642 14.762 78.7448 15 77.5408 15H72.8928V5.2H77.2748C78.3762 5.2 79.2348 5.41933 79.8508 5.858C80.4668 6.29667 80.7748 6.91733 80.7748 7.72C80.7748 8.23333 80.6488 8.67667 80.3968 9.05C80.1542 9.42333 79.7995 9.708 79.3328 9.904ZM74.6848 9.386H77.1208C77.7088 9.386 78.1568 9.26933 78.4648 9.036C78.7728 8.80267 78.9268 8.45733 78.9268 8C78.9268 7.54267 78.7728 7.19733 78.4648 6.964C78.1568 6.72133 77.7088 6.6 77.1208 6.6H74.6848V9.386ZM77.4848 13.6C78.7728 13.6 79.4168 13.1147 79.4168 12.144C79.4168 11.192 78.7728 10.716 77.4848 10.716H74.6848V13.6H77.4848ZM90.5701 12.732H85.6701L84.7041 15H82.8281L87.2381 5.2H89.0301L93.4541 15H91.5501L90.5701 12.732ZM89.9681 11.304L88.1201 7.02L86.2861 11.304H89.9681ZM99.739 5.2C100.588 5.2 101.326 5.34 101.951 5.62C102.586 5.9 103.071 6.30133 103.407 6.824C103.743 7.34667 103.911 7.96733 103.911 8.686C103.911 9.39533 103.743 10.016 103.407 10.548C103.071 11.0707 102.586 11.472 101.951 11.752C101.326 12.032 100.588 12.172 99.739 12.172H97.527V15H95.707V5.2H99.739ZM99.655 10.632C100.448 10.632 101.05 10.464 101.461 10.128C101.872 9.792 102.077 9.31133 102.077 8.686C102.077 8.06067 101.872 7.58 101.461 7.244C101.05 6.908 100.448 6.74 99.655 6.74H97.527V10.632H99.655ZM110.905 8.518C112.081 8.518 112.981 8.784 113.607 9.316C114.241 9.83867 114.559 10.618 114.559 11.654C114.559 12.7367 114.213 13.5673 113.523 14.146C112.832 14.7153 111.861 15 110.611 15H106.397V5.2H108.189V8.518H110.905ZM110.527 13.6C111.236 13.6 111.782 13.4367 112.165 13.11C112.547 12.7833 112.739 12.3073 112.739 11.682C112.739 10.4967 112.001 9.904 110.527 9.904H108.189V13.6H110.527ZM115.973 5.2H117.765V15H115.973V5.2Z" fill="#FFC000"/>
<path d="M8 10L2 13.4641L2 6.5359L8 10Z" fill="#FFC000"/>
</svg>
